<svg width="55" height="73" viewBox="0 0 55 73" fill="none" xmlns="http://www.w3.org/2000/svg">
<path d="M27.5 17.3836C34.7935 17.3836 41.7882 20.3134 46.9454 25.5284C52.1027 30.7435 55 37.8166 55 45.1918C55 52.567 52.1027 59.6401 46.9454 64.8552C41.7882 70.0702 34.7935 73 27.5 73C20.2065 73 13.2118 70.0702 8.05456 64.8552C2.89731 59.6401 0 52.567 0 45.1918C0 37.8166 2.89731 30.7435 8.05456 25.5284C13.2118 20.3134 20.2065 17.3836 27.5 17.3836ZM27.5 24.3357C22.0299 24.3357 16.7839 26.533 12.9159 30.4443C9.04799 34.3556 6.875 39.6604 6.875 45.1918C6.875 50.7232 9.04799 56.028 12.9159 59.9393C16.7839 63.8506 22.0299 66.048 27.5 66.048C32.9701 66.048 38.2161 63.8506 42.0841 59.9393C45.952 56.028 48.125 50.7232 48.125 45.1918C48.125 39.6604 45.952 34.3556 42.0841 30.4443C38.2161 26.533 32.9701 24.3357 27.5 24.3357ZM27.5 29.5497L32.0478 38.8654L42.2125 40.3601L34.8563 47.6076L36.5922 57.848L27.5 53.0129L18.4078 57.8445L20.1437 47.6076L12.7875 40.3567L22.9522 38.862L27.5 29.5497ZM48.125 0.00347619V10.4316L43.4397 14.3873C39.5517 12.3245 35.3068 11.0393 30.9375 10.6019V0.00347619H48.125ZM24.0625 0V10.6019C19.6946 11.0386 15.451 12.3227 11.5637 14.3838L6.875 10.4316V0.00347619L24.0625 0Z" fill="#030762"/>
</svg>
