<svg width="54" height="73" viewBox="0 0 54 73" fill="none" xmlns="http://www.w3.org/2000/svg">
<path d="M26.8401 22.6254L34.2105 40.3359L53.3401 41.8674L38.7665 54.3427L43.218 73L26.8401 63.0031L10.4622 73L14.9137 54.3427L0.340088 41.8674L19.4697 40.3359L26.8401 22.6254ZM26.8401 40.7501L24.266 46.9355L17.5923 47.4681L22.6777 51.8226L21.1207 58.3353L26.8401 54.844L32.556 58.3353L31.0025 51.8261L36.0844 47.4681L29.4142 46.9355L26.8401 40.7501ZM12.9074 0V31.3275H5.94103V0H12.9074ZM47.7391 0V31.3275H40.7728V0H47.7391ZM30.3233 0V17.4042H23.3569V0H30.3233Z" fill="#030762"/>
</svg>
