<svg width="60" height="74" viewBox="0 0 60 74" fill="none" xmlns="http://www.w3.org/2000/svg">
<path d="M2.58129 6.07062L29.67 0L56.7587 6.07062C57.4908 6.23473 58.1455 6.64565 58.6148 7.23556C59.0841 7.82546 59.3399 8.5591 59.34 9.31538V42.5176C59.3398 45.8014 58.5356 49.0343 56.999 51.9294C55.4624 54.8246 53.2407 57.2923 50.5313 59.1137L29.67 73.14L8.80869 59.1137C6.09973 57.2927 3.8784 54.8254 2.34178 51.9309C0.805163 49.0364 0.000779188 45.8041 0 42.5209V9.31538C0.000128695 8.5591 0.255946 7.82546 0.725232 7.23556C1.19452 6.64565 1.84922 6.23473 2.58129 6.07062ZM6.59333 11.9817V42.5176C6.59337 44.7067 7.12929 46.8619 8.15352 48.792C9.17775 50.7221 10.6586 52.3673 12.4647 53.5817L29.67 65.1511L46.8753 53.5817C48.6809 52.3676 50.1615 50.7229 51.1857 48.7934C52.2099 46.864 52.7461 44.7094 52.7467 42.5209V11.9817L29.67 6.81532L6.59333 11.9817ZM32.9667 29.9209H42.8567L26.3733 53.1927V36.57H16.4833L32.9667 13.2982V29.9209Z" fill="#030762"/>
</svg>
