<svg width="83" height="83" viewBox="0 0 83 83" fill="none" xmlns="http://www.w3.org/2000/svg">
<path d="M41.4998 76.0833C22.3995 76.0833 6.9165 60.6004 6.9165 41.5C6.9165 22.3996 22.3995 6.91667 41.4998 6.91667C60.6002 6.91667 76.0832 22.3996 76.0832 41.5C76.0832 60.6004 60.6002 76.0833 41.4998 76.0833ZM41.4998 69.1667C48.8375 69.1667 55.8746 66.2518 61.0631 61.0633C66.2516 55.8748 69.1665 48.8377 69.1665 41.5C69.1665 34.1623 66.2516 27.1252 61.0631 21.9367C55.8746 16.7482 48.8375 13.8333 41.4998 13.8333C34.1622 13.8333 27.1251 16.7482 21.9366 21.9367C16.748 27.1252 13.8332 34.1623 13.8332 41.5C13.8332 48.8377 16.748 55.8748 21.9366 61.0633C27.1251 66.2518 34.1622 69.1667 41.4998 69.1667ZM36.7343 29.1019L53.6075 40.3484C53.7972 40.4747 53.9528 40.6459 54.0604 40.8468C54.1681 41.0477 54.2244 41.2721 54.2244 41.5C54.2244 41.7279 54.1681 41.9523 54.0604 42.1532C53.9528 42.3542 53.7972 42.5254 53.6075 42.6516L36.7308 53.8981C36.5227 54.0361 36.2812 54.1151 36.0318 54.1269C35.7824 54.1387 35.5345 54.0828 35.3143 53.965C35.0941 53.8473 34.9099 53.6722 34.7812 53.4583C34.6525 53.2444 34.584 52.9996 34.5832 52.75V30.25C34.5836 29.9998 34.652 29.7544 34.7808 29.54C34.9097 29.3255 35.0944 29.1501 35.3151 29.0322C35.5358 28.9144 35.7844 28.8587 36.0343 28.8709C36.2842 28.8832 36.5261 28.963 36.7343 29.1019Z" fill="white"/>
</svg>
