<svg width="20" height="20" viewBox="0 0 20 20" fill="none" xmlns="http://www.w3.org/2000/svg">
<path d="M9.08301 0.833328C13.637 0.833328 17.333 4.52933 17.333 9.08333C17.333 13.6373 13.637 17.3333 9.08301 17.3333C4.52901 17.3333 0.833008 13.6373 0.833008 9.08333C0.833008 4.52933 4.52901 0.833328 9.08301 0.833328ZM9.08301 15.5C12.6278 15.5 15.4997 12.6281 15.4997 9.08333C15.4997 5.53766 12.6278 2.66666 9.08301 2.66666C5.53734 2.66666 2.66634 5.53766 2.66634 9.08333C2.66634 12.6281 5.53734 15.5 9.08301 15.5ZM16.8609 15.5651L19.4542 18.1574L18.1571 19.4545L15.5648 16.8612L16.8609 15.5651Z" fill="#505050"/>
</svg>
