<svg width="23" height="19" viewBox="0 0 23 19" fill="none" xmlns="http://www.w3.org/2000/svg">
<path d="M8.33 9.49999H10.5C11.6935 9.49999 12.8381 9.97409 13.682 10.818C14.5259 11.6619 15 12.8065 15 14H7.999L8 15H16V14C15.9968 12.9359 15.6894 11.895 15.114 11H18C18.9453 10.9997 19.8712 11.2674 20.6705 11.772C21.4698 12.2766 22.1097 12.9975 22.516 13.851C20.151 16.972 16.322 19 12 19C9.239 19 6.9 18.41 5 17.375V8.07099C6.21661 8.24526 7.36547 8.73827 8.33 9.49999V9.49999ZM3 6.99999C3.24493 7.00002 3.48134 7.08994 3.66437 7.2527C3.84741 7.41546 3.96434 7.63974 3.993 7.88299L4 7.99999V17C4 17.2652 3.89464 17.5196 3.70711 17.7071C3.51957 17.8946 3.26522 18 3 18H1C0.734784 18 0.48043 17.8946 0.292893 17.7071C0.105357 17.5196 0 17.2652 0 17V7.99999C0 7.73477 0.105357 7.48042 0.292893 7.29288C0.48043 7.10534 0.734784 6.99999 1 6.99999H3ZM12.646 1.57499L13 1.92999L13.354 1.57599C13.5858 1.3422 13.8615 1.15651 14.1653 1.02957C14.469 0.902624 14.7949 0.836929 15.1241 0.836255C15.4533 0.835581 15.7795 0.899941 16.0837 1.02564C16.388 1.15134 16.6645 1.3359 16.8973 1.56873C17.13 1.80156 17.3145 2.07808 17.4401 2.3824C17.5657 2.68672 17.63 3.01285 17.6292 3.34207C17.6285 3.6713 17.5627 3.99713 17.4356 4.30086C17.3086 4.60459 17.1228 4.88024 16.889 5.11199L13 8.99999L9.11 5.10999C8.87622 4.87818 8.69053 4.60247 8.56358 4.29871C8.43664 3.99494 8.37094 3.66909 8.37027 3.33987C8.36959 3.01064 8.43395 2.68452 8.55965 2.38024C8.68535 2.07596 8.86992 1.7995 9.10275 1.56673C9.33558 1.33397 9.61209 1.14948 9.91641 1.02387C10.2207 0.898255 10.5469 0.833987 10.8761 0.834754C11.2053 0.835521 11.5311 0.901308 11.8349 1.02834C12.1386 1.15537 12.4143 1.34114 12.646 1.57499V1.57499Z" fill="white"/>
</svg>
